<svg preserveAspectRatio="none" width="100%" height="100%" overflow="visible" style="display: block;" viewBox="0 0 15 15" fill="none" xmlns="http://www.w3.org/2000/svg">
<g id="Icon">
<path fill-rule="evenodd" clip-rule="evenodd" d="M6.66667 1.66667C3.90524 1.66667 1.66667 3.90524 1.66667 6.66667C1.66667 9.42809 3.90524 11.6667 6.66667 11.6667C9.42809 11.6667 11.6667 9.42809 11.6667 6.66667C11.6667 3.90524 9.42809 1.66667 6.66667 1.66667ZM0 6.66667C0 2.98477 2.98477 0 6.66667 0C10.3486 0 13.3333 2.98477 13.3333 6.66667C13.3333 10.3486 10.3486 13.3333 6.66667 13.3333C2.98477 13.3333 0 10.3486 0 6.66667Z" fill="var(--fill-0, #52525B)"/>
<path fill-rule="evenodd" clip-rule="evenodd" d="M10.2441 10.2441C10.5695 9.91864 11.0972 9.91864 11.4226 10.2441L14.7559 13.5774C15.0814 13.9028 15.0814 14.4305 14.7559 14.7559C14.4305 15.0814 13.9028 15.0814 13.5774 14.7559L10.2441 11.4226C9.91864 11.0972 9.91864 10.5695 10.2441 10.2441Z" fill="var(--fill-0, #52525B)"/>
</g>
</svg>
