<svg preserveAspectRatio="none" width="100%" height="100%" overflow="visible" style="display: block;" viewBox="0 0 24 24" fill="none" xmlns="http://www.w3.org/2000/svg">
<path id="Icon" fill-rule="evenodd" clip-rule="evenodd" d="M6.49573 0C2.90824 0 0 2.90824 0 6.49573V17.5043C0 21.0918 2.90824 24 6.49573 24H17.5043C21.0918 24 24 21.0918 24 17.5043V6.49573C24 2.90824 21.0918 0 17.5043 0H6.49573ZM2.66667 6.86869C2.66667 4.54797 4.54798 2.66667 6.86869 2.66667H17.1313C19.452 2.66667 21.3333 4.54798 21.3333 6.86869V17.1313C21.3333 19.452 19.452 21.3333 17.1313 21.3333H6.86869C4.54797 21.3333 2.66667 19.452 2.66667 17.1313V6.86869Z" fill="var(--fill-0, #52525B)"/>
</svg>
