<svg preserveAspectRatio="none" width="100%" height="100%" overflow="visible" style="display: block;" viewBox="0 0 62 76" fill="none" xmlns="http://www.w3.org/2000/svg">
<g id="Shape">
<mask id="path-1-outside-1_12366_107052" maskUnits="userSpaceOnUse" x="0" y="0" width="62" height="76" fill="black">
<rect fill="white" width="62" height="76"/>
<path d="M24 2C29.6771 2 35.2738 3.34266 40.333 5.91836C45.3923 8.49406 49.7706 12.2298 53.1106 16.8205C56.4506 21.4112 58.6575 26.7267 59.5512 32.3331C60.4448 37.9394 59.9999 43.6777 58.2527 49.0793C56.5055 54.4809 53.5056 59.3927 49.4979 63.4137C45.4902 67.4347 40.5884 70.4508 35.1926 72.2159C29.7968 73.9809 24.06 74.4448 18.4507 73.5697C12.8414 72.6946 7.51862 70.5053 2.91689 67.1805L24 38L24 2Z"/>
</mask>
<path d="M24 2C29.6771 2 35.2738 3.34266 40.333 5.91836C45.3923 8.49406 49.7706 12.2298 53.1106 16.8205C56.4506 21.4112 58.6575 26.7267 59.5512 32.3331C60.4448 37.9394 59.9999 43.6777 58.2527 49.0793C56.5055 54.4809 53.5056 59.3927 49.4979 63.4137C45.4902 67.4347 40.5884 70.4508 35.1926 72.2159C29.7968 73.9809 24.06 74.4448 18.4507 73.5697C12.8414 72.6946 7.51862 70.5053 2.91689 67.1805L24 38L24 2Z" stroke="var(--stroke-0, #1559EA)" stroke-width="4" mask="url(#path-1-outside-1_12366_107052)"/>
</g>
</svg>
