<svg preserveAspectRatio="none" width="100%" height="100%" overflow="visible" style="display: block;" viewBox="0 0 28 29" fill="none" xmlns="http://www.w3.org/2000/svg">
<path id="Icon" d="M27.3415 11.5775H14.1515V17.0439H21.742C21.0356 20.5176 18.0783 22.5135 14.1515 22.5135C13.0528 22.5153 11.9644 22.3003 10.949 21.8806C9.93349 21.4609 9.01086 20.8449 8.23399 20.0679C7.45712 19.2909 6.84129 18.3682 6.42182 17.3526C6.00235 16.3371 5.7875 15.2487 5.78958 14.1499C5.78771 13.0513 6.00271 11.9631 6.42228 10.9477C6.84184 9.93237 7.4577 9.00981 8.23455 8.23296C9.0114 7.45611 9.93396 6.84025 10.9493 6.42069C11.9647 6.00112 13.0529 5.78612 14.1515 5.788C16.1458 5.788 17.9484 6.49604 19.3629 7.65395L23.4813 3.53713C20.9722 1.34963 17.7551 6.0284e-05 14.1515 6.0284e-05C12.2916 -0.00537628 10.449 0.356951 8.72957 1.0662C7.01018 1.77545 5.44798 2.81764 4.13281 4.1328C2.81764 5.44797 1.77546 7.01017 1.06621 8.72956C0.356956 10.4489 -0.00537154 12.2916 6.5025e-05 14.1515C-0.00558177 16.0115 0.356602 17.8542 1.06578 19.5737C1.77496 21.2932 2.81713 22.8555 4.13234 24.1707C5.44755 25.4859 7.00984 26.5281 8.72932 27.2373C10.4488 27.9464 12.2915 28.3086 14.1515 28.303C21.2272 28.303 27.6615 23.1566 27.6615 14.1515C27.6615 13.3152 27.5332 12.4139 27.3415 11.5775Z" fill="var(--fill-0, #52525B)"/>
</svg>
