<svg preserveAspectRatio="none" width="100%" height="100%" overflow="visible" style="display: block;" viewBox="0 0 26 30" fill="none" xmlns="http://www.w3.org/2000/svg">
<g id="Icon">
<path d="M14.0111 2.40207C13.2152 3.5332 12.7839 4.88634 12.7275 6.42684C12.9851 6.39806 13.242 6.36368 13.4981 6.32364C13.7861 6.27746 14.0244 6.22616 14.1984 6.17405C14.7251 5.99249 15.321 5.59085 15.9652 4.9842C16.654 4.29571 17.1726 3.53284 17.5044 2.72229C17.821 1.88516 17.9814 1.1241 17.9814 0.460389V0.167688C17.9684 0.111923 17.9559 0.0559444 17.9439 0C16.1335 0.457614 14.8111 1.2652 14.0111 2.40207Z" fill="var(--fill-0, #52525B)"/>
<path d="M2.74322 7.64444C4.29273 6.12239 6.18184 5.51726 7.54802 5.51726C8.897 5.51726 10.0187 6.1088 10.8238 6.53338L10.917 6.58246C11.8253 7.06019 12.398 7.33214 13.0295 7.33214C13.6813 7.33214 14.3032 7.04764 15.3209 6.55961L15.3403 6.55033C16.2605 6.10898 17.4943 5.51726 18.9792 5.51726C21.0333 5.51726 22.7424 6.56162 24.0873 8.31741C24.5243 8.88792 24.4514 9.69965 23.9198 10.1825C22.4526 11.5152 21.7323 13.1488 21.7323 15.1819C21.7323 17.9977 23.7094 19.241 24.6611 19.8095C25.2242 20.1459 25.4727 20.8341 25.2551 21.4544C24.9121 22.4324 24.2818 23.6599 23.6466 24.7335C23.0214 25.7904 22.3007 26.852 21.7334 27.4403L21.7042 27.4705C21.2889 27.9012 20.814 28.3939 20.2349 28.7464C19.5766 29.1472 18.8562 29.3333 17.9815 29.3333C17.4676 29.3333 16.9539 29.2216 16.5115 29.0995C16.1096 28.9885 15.688 28.8455 15.3031 28.7149L15.1735 28.671C14.2553 28.3604 13.5671 28.1533 13.0295 28.1533C12.5153 28.1533 11.9422 28.3455 11.1081 28.6568L10.9841 28.7032C10.2742 28.9695 9.3041 29.3333 8.32427 29.3333C6.24796 29.3333 4.91945 27.716 4.5081 27.2152C4.47861 27.1793 4.45384 27.1491 4.43384 27.1257L4.39706 27.0829C3.80409 26.3937 0 21.9722 0 15.1819C0 11.649 1.1542 9.20529 2.74322 7.64444Z" fill="var(--fill-0, #52525B)"/>
</g>
</svg>
