<svg preserveAspectRatio="none" width="100%" height="100%" overflow="visible" style="display: block;" viewBox="0 0 20 20" fill="none" xmlns="http://www.w3.org/2000/svg">
<path id="Icon" fill-rule="evenodd" clip-rule="evenodd" d="M20 10C20 15.5228 15.5228 20 10 20C4.47715 20 0 15.5228 0 10C0 4.47715 4.47715 0 10 0C15.5228 0 20 4.47715 20 10ZM9 8C8.44772 8 8 8.44772 8 9C8 9.55229 8.44772 10 9 10V15C9 15.5523 9.44772 16 10 16H11C11.5523 16 12 15.5523 12 15C12 14.4477 11.5523 14 11 14V9C11 8.44772 10.5523 8 10 8H9ZM9 5.5C9 4.94772 9.44772 4.5 10 4.5C10.5523 4.5 11 4.94772 11 5.5C11 6.05228 10.5523 6.5 10 6.5C9.44772 6.5 9 6.05228 9 5.5Z" fill="var(--fill-0, #52525B)"/>
</svg>
