<svg preserveAspectRatio="none" width="100%" height="100%" overflow="visible" style="display: block;" viewBox="0 0 32 38" fill="none" xmlns="http://www.w3.org/2000/svg">
<g id="Shape">
<mask id="path-1-outside-1_12366_106858" maskUnits="userSpaceOnUse" x="0" y="0" width="32" height="38" fill="black">
<rect fill="white" width="32" height="38"/>
<path d="M13 2C15.6809 2 18.3237 2.63403 20.7128 3.85034C23.1019 5.06664 25.1695 6.83072 26.7467 8.99855C28.3239 11.1664 29.366 13.6765 29.7881 16.3239C30.2101 18.9714 30 21.6811 29.1749 24.2319C28.3498 26.7826 26.9332 29.1021 25.0407 31.0009C23.1482 32.8997 20.8334 34.324 18.2854 35.1575C15.7374 35.991 13.0283 36.2101 10.3795 35.7968C7.73067 35.3836 5.21713 34.3497 3.04409 32.7797L13 19L13 2Z"/>
</mask>
<path d="M13 2C15.6809 2 18.3237 2.63403 20.7128 3.85034C23.1019 5.06664 25.1695 6.83072 26.7467 8.99855C28.3239 11.1664 29.366 13.6765 29.7881 16.3239C30.2101 18.9714 30 21.6811 29.1749 24.2319C28.3498 26.7826 26.9332 29.1021 25.0407 31.0009C23.1482 32.8997 20.8334 34.324 18.2854 35.1575C15.7374 35.991 13.0283 36.2101 10.3795 35.7968C7.73067 35.3836 5.21713 34.3497 3.04409 32.7797L13 19L13 2Z" stroke="var(--stroke-0, #1559EA)" stroke-width="4" mask="url(#path-1-outside-1_12366_106858)"/>
</g>
</svg>
