<svg preserveAspectRatio="none" width="100%" height="100%" overflow="visible" style="display: block;" viewBox="0 0 17 15" fill="none" xmlns="http://www.w3.org/2000/svg">
<path id="Icon" fill-rule="evenodd" clip-rule="evenodd" d="M10.2489 1.09853C9.40867 -0.366178 7.258 -0.366177 6.41775 1.09853L0.285456 11.7884C-0.538656 13.2249 0.520073 15 2.20104 15H14.4656C16.1466 15 17.2053 13.2249 16.3812 11.7884L10.2489 1.09853ZM8.33333 4.58333C7.8731 4.58333 7.5 4.95643 7.5 5.41667V9.58333C7.5 10.0436 7.8731 10.4167 8.33333 10.4167C8.79357 10.4167 9.16667 10.0436 9.16667 9.58333V5.41667C9.16667 4.95643 8.79357 4.58333 8.33333 4.58333ZM8.33333 11.25C7.8731 11.25 7.5 11.6231 7.5 12.0833C7.5 12.5436 7.8731 12.9167 8.33333 12.9167C8.79357 12.9167 9.16667 12.5436 9.16667 12.0833C9.16667 11.6231 8.79357 11.25 8.33333 11.25Z" fill="var(--fill-0, #DC2828)"/>
</svg>
