<svg preserveAspectRatio="none" width="100%" height="100%" overflow="visible" style="display: block;" viewBox="0 0 24 17" fill="none" xmlns="http://www.w3.org/2000/svg">
<g id="Icon">
<path fill-rule="evenodd" clip-rule="evenodd" d="M0 1.16667C0 0.522334 0.522334 0 1.16667 0H22.1667C22.811 0 23.3333 0.522334 23.3333 1.16667C23.3333 1.811 22.811 2.33333 22.1667 2.33333H1.16667C0.522334 2.33333 0 1.811 0 1.16667Z" fill="var(--fill-0, #52525B)"/>
<path fill-rule="evenodd" clip-rule="evenodd" d="M0 8.16667C0 7.52233 0.522334 7 1.16667 7H22.1667C22.811 7 23.3333 7.52233 23.3333 8.16667C23.3333 8.811 22.811 9.33333 22.1667 9.33333H1.16667C0.522334 9.33333 0 8.811 0 8.16667Z" fill="var(--fill-0, #52525B)"/>
<path fill-rule="evenodd" clip-rule="evenodd" d="M0 15.1667C0 14.5223 0.522334 14 1.16667 14H22.1667C22.811 14 23.3333 14.5223 23.3333 15.1667C23.3333 15.811 22.811 16.3333 22.1667 16.3333H1.16667C0.522334 16.3333 0 15.811 0 15.1667Z" fill="var(--fill-0, #52525B)"/>
</g>
</svg>
