<svg preserveAspectRatio="none" width="100%" height="100%" overflow="visible" style="display: block;" viewBox="0 0 16 12" fill="none" xmlns="http://www.w3.org/2000/svg">
<g id="Icon">
<path d="M12.7858 5.94985L8.54285 1.70685C8.15238 1.31638 8.15238 0.683314 8.54285 0.292849C8.93331 -0.0976164 9.56638 -0.0976163 9.95685 0.292849L14.9067 5.24274C15.2973 5.63327 15.2973 6.26643 14.9067 6.65696L9.95685 11.6068C9.56638 11.9973 8.93331 11.9973 8.54285 11.6068C8.15238 11.2164 8.15238 10.5833 8.54285 10.1929L12.7858 5.94985Z" fill="var(--fill-0, #A1A1AA)"/>
<path fill-rule="evenodd" clip-rule="evenodd" d="M0 6C6.58593e-09 5.44772 0.447715 5 1 5H13.5C14.0523 5 14.5 5.44772 14.5 6C14.5 6.55228 14.0523 7 13.5 7H1C0.447715 7 -6.58593e-09 6.55228 0 6Z" fill="var(--fill-0, #A1A1AA)"/>
</g>
</svg>
