<svg preserveAspectRatio="none" width="100%" height="100%" overflow="visible" style="display: block;" viewBox="0 0 20 20" fill="none" xmlns="http://www.w3.org/2000/svg">
<path id="Icon" d="M9.89901 0C4.43223 0 0 4.43223 0 9.89901C0 14.8391 3.61944 18.9337 8.35263 19.6792V12.7611H5.83803V9.89901H8.35263V7.71804C8.35263 5.23512 9.8307 3.86595 12.0909 3.86595C13.1739 3.86595 14.3085 4.059 14.3085 4.059V6.49341H13.0571C11.8295 6.49341 11.4454 7.25769 11.4454 8.04078V9.89703H14.1887L13.7501 12.7591H11.4454V19.6772C16.1786 18.9357 19.798 14.8401 19.798 9.89901C19.798 4.43223 15.3658 0 9.89901 0V0Z" fill="var(--fill-0, #52525B)"/>
</svg>
