<svg preserveAspectRatio="none" width="100%" height="100%" overflow="visible" style="display: block;" viewBox="0 0 21 22" fill="none" xmlns="http://www.w3.org/2000/svg">
<path id="Icon" d="M20.5061 8.68314H10.6136V12.7829H16.3065C15.7767 15.3882 13.5587 16.8851 10.6136 16.8851C9.78957 16.8865 8.97332 16.7252 8.21172 16.4105C7.45012 16.0957 6.75815 15.6337 6.17549 15.0509C5.59284 14.4682 5.13097 13.7761 4.81636 13.0145C4.50176 12.2528 4.34062 11.4365 4.34219 10.6124C4.34078 9.78847 4.50204 8.97233 4.81671 8.2108C5.13138 7.44928 5.59328 6.75736 6.17591 6.17472C6.75855 5.59208 7.45047 5.13019 8.21199 4.81551C8.97352 4.50084 9.78967 4.33959 10.6136 4.341C12.1093 4.341 13.4613 4.87203 14.5222 5.74046L17.611 2.65285C15.7292 1.01222 13.3163 4.5213e-05 10.6136 4.5213e-05C9.2187 -0.00403221 7.83672 0.267713 6.54718 0.799652C5.25764 1.33159 4.08598 2.11323 3.09961 3.0996C2.11323 4.08598 1.33159 5.25763 0.799656 6.54717C0.267717 7.83671 -0.00402865 9.2187 4.87688e-05 10.6136C-0.00418633 12.0086 0.267452 13.3907 0.799334 14.6803C1.33122 15.9699 2.11285 17.1416 3.09925 18.128C4.08566 19.1144 5.25738 19.8961 6.54699 20.4279C7.8366 20.9598 9.21866 21.2315 10.6136 21.2272C15.9204 21.2272 20.7461 17.3674 20.7461 10.6136C20.7461 9.98637 20.6499 9.3104 20.5061 8.68314Z" fill="var(--fill-0, #52525B)"/>
</svg>
