<svg preserveAspectRatio="none" width="100%" height="100%" overflow="visible" style="display: block;" viewBox="0 0 40 48" fill="none" xmlns="http://www.w3.org/2000/svg">
<g id="Shape">
<mask id="path-1-outside-1_12366_106884" maskUnits="userSpaceOnUse" x="0" y="0" width="40" height="48" fill="black">
<rect fill="white" width="40" height="48"/>
<path d="M16 2C19.4694 2 22.8896 2.82052 25.9813 4.39455C29.0731 5.96859 31.7487 8.25152 33.7898 11.057C35.8309 13.8624 37.1796 17.1108 37.7257 20.5369C38.2718 23.963 37.9999 27.4697 36.9322 30.7707C35.8645 34.0717 34.0312 37.0733 31.5821 39.5306C29.1329 41.9879 26.1373 43.8311 22.8399 44.9097C19.5425 45.9883 16.0367 46.2718 12.6088 45.7371C9.18087 45.2023 5.92804 43.8643 3.11588 41.8325L16 24L16 2Z"/>
</mask>
<path d="M16 2C19.4694 2 22.8896 2.82052 25.9813 4.39455C29.0731 5.96859 31.7487 8.25152 33.7898 11.057C35.8309 13.8624 37.1796 17.1108 37.7257 20.5369C38.2718 23.963 37.9999 27.4697 36.9322 30.7707C35.8645 34.0717 34.0312 37.0733 31.5821 39.5306C29.1329 41.9879 26.1373 43.8311 22.8399 44.9097C19.5425 45.9883 16.0367 46.2718 12.6088 45.7371C9.18087 45.2023 5.92804 43.8643 3.11588 41.8325L16 24L16 2Z" stroke="var(--stroke-0, #61A6FA)" stroke-width="4" mask="url(#path-1-outside-1_12366_106884)"/>
</g>
</svg>
