<svg preserveAspectRatio="none" width="100%" height="100%" overflow="visible" style="display: block;" viewBox="0 0 65 78" fill="none" xmlns="http://www.w3.org/2000/svg">
<g id="Shape">
<mask id="path-1-outside-1_12366_106862" maskUnits="userSpaceOnUse" x="0" y="0" width="65" height="78" fill="black">
<rect fill="white" width="65" height="78"/>
<path d="M26 3C31.6771 3 37.2738 4.34266 42.333 6.91836C47.3923 9.49406 51.7706 13.2298 55.1106 17.8205C58.4506 22.4112 60.6575 27.7267 61.5512 33.3331C62.4448 38.9394 61.9999 44.6777 60.2527 50.0793C58.5055 55.4809 55.5056 60.3927 51.4979 64.4137C47.4902 68.4347 42.5884 71.4508 37.1926 73.2159C31.7968 74.9809 26.06 75.4448 20.4507 74.5697C14.8414 73.6946 9.51862 71.5053 4.91689 68.1805L26 39L26 3Z"/>
</mask>
<path d="M26 3C31.6771 3 37.2738 4.34266 42.333 6.91836C47.3923 9.49406 51.7706 13.2298 55.1106 17.8205C58.4506 22.4112 60.6575 27.7267 61.5512 33.3331C62.4448 38.9394 61.9999 44.6777 60.2527 50.0793C58.5055 55.4809 55.5056 60.3927 51.4979 64.4137C47.4902 68.4347 42.5884 71.4508 37.1926 73.2159C31.7968 74.9809 26.06 75.4448 20.4507 74.5697C14.8414 73.6946 9.51862 71.5053 4.91689 68.1805L26 39L26 3Z" stroke="var(--stroke-0, #61A6FA)" stroke-width="6" mask="url(#path-1-outside-1_12366_106862)"/>
</g>
</svg>
