<svg preserveAspectRatio="none" width="100%" height="100%" overflow="visible" style="display: block;" viewBox="0 0 16 19" fill="none" xmlns="http://www.w3.org/2000/svg">
<g id="Icon">
<path d="M8.75696 1.50129C8.25951 2.20825 7.98995 3.05396 7.9547 4.01678C8.1157 3.99879 8.27627 3.9773 8.43633 3.95227C8.61629 3.92341 8.76526 3.89135 8.87398 3.85878C9.20317 3.7453 9.57561 3.49428 9.97827 3.11512C10.4087 2.68482 10.7329 2.20802 10.9402 1.70143C11.1381 1.17823 11.2384 0.702563 11.2384 0.287743V0.104805C11.2303 0.0699521 11.2224 0.0349653 11.2149 0C10.0835 0.286009 9.25695 0.790753 8.75696 1.50129Z" fill="var(--fill-0, #52525B)"/>
<path d="M1.71451 4.77777C2.68296 3.82649 3.86365 3.44828 4.71751 3.44828C5.56063 3.44828 6.26169 3.818 6.76489 4.08336L6.8231 4.11404C7.39079 4.41262 7.74874 4.58259 8.14346 4.58259C8.55078 4.58259 8.93953 4.40477 9.57556 4.09976L9.58766 4.09395C10.1628 3.81811 10.9339 3.44828 11.862 3.44828C13.1458 3.44828 14.214 4.10102 15.0546 5.19838C15.3277 5.55495 15.2822 6.06228 14.9499 6.36409C14.0329 7.197 13.5827 8.21801 13.5827 9.48868C13.5827 11.2486 14.8184 12.0256 15.4132 12.381C15.7651 12.5912 15.9204 13.0213 15.7844 13.409C15.57 14.0203 15.1761 14.7874 14.7791 15.4585C14.3883 16.119 13.938 16.7825 13.5834 17.1502L13.5651 17.1691C13.3056 17.4383 13.0087 17.7462 12.6468 17.9665C12.2354 18.217 11.7851 18.3333 11.2384 18.3333C10.9173 18.3333 10.5962 18.2635 10.3197 18.1872C10.0685 18.1178 9.80497 18.0284 9.56443 17.9468L9.48343 17.9194C8.90957 17.7252 8.47945 17.5958 8.14346 17.5958C7.82205 17.5958 7.4639 17.7159 6.94254 17.9105L6.86509 17.9395C6.42139 18.1059 5.81506 18.3333 5.20267 18.3333C3.90497 18.3333 3.07466 17.3225 2.81756 17.0095C2.79913 16.9871 2.78365 16.9682 2.77115 16.9536L2.74816 16.9268C2.37755 16.496 0 13.7326 0 9.48868C0 7.28061 0.721376 5.75331 1.71451 4.77777Z" fill="var(--fill-0, #52525B)"/>
</g>
</svg>
