<svg preserveAspectRatio="none" width="100%" height="100%" overflow="visible" style="display: block;" viewBox="0 0 24 24" fill="none" xmlns="http://www.w3.org/2000/svg">
<path id="Icon" fill-rule="evenodd" clip-rule="evenodd" d="M11.8491 0C5.30442 0 0 5.30442 0 11.8491C0 17.0834 3.39412 21.5254 8.10335 23.0935C8.69616 23.2005 8.91 22.8357 8.91 22.5221C8.91 22.2405 8.9005 21.4945 8.89693 20.5073C5.60023 21.2224 4.90406 18.9177 4.90406 18.9177C4.36709 17.5491 3.58895 17.1844 3.58895 17.1844C2.51381 16.449 3.67092 16.4657 3.67092 16.4657C4.8613 16.5488 5.485 17.6869 5.485 17.6869C6.54232 19.4975 8.26016 18.9747 8.93257 18.6718C9.04068 17.9055 9.34956 17.3828 9.68695 17.087C7.05672 16.7888 4.29106 15.7719 4.29106 11.2302C4.29106 9.93881 4.75319 8.87911 5.50757 8.05226C5.38758 7.7517 4.97772 6.54588 5.62518 4.91594C5.62518 4.91594 6.61954 4.59637 8.88268 6.12889C9.84922 5.86595 10.8462 5.73174 11.8479 5.72972C12.8496 5.73135 13.8467 5.86557 14.8132 6.12889C17.0775 4.59518 18.0707 4.91594 18.0707 4.91594C18.7181 6.54588 18.3118 7.7517 18.1883 8.05226C18.9486 8.87911 19.4048 9.93762 19.4048 11.2302C19.4048 15.7838 16.6368 16.7841 13.997 17.0775C14.4188 17.4434 14.7989 18.1657 14.7989 19.2706C14.7989 20.8553 14.7847 22.1336 14.7847 22.5221C14.7847 22.8393 14.9961 23.2076 15.6008 23.0912C20.3077 21.5206 23.6982 17.0823 23.6982 11.8491C23.6982 5.30442 18.3938 0 11.8491 0Z" fill="var(--fill-0, #52525B)"/>
</svg>
