<svg preserveAspectRatio="none" width="100%" height="100%" overflow="visible" style="display: block;" viewBox="0 0 21 23" fill="none" xmlns="http://www.w3.org/2000/svg">
<path id="Icon" fill-rule="evenodd" clip-rule="evenodd" d="M4.66667 5.83333C4.66667 2.61067 7.27733 0 10.5 0C13.7227 0 16.3333 2.61067 16.3333 5.83333V7H18.6667C20.4167 7 21 7.84 21 8.86667V19.95C21 21.2387 19.9553 22.2833 18.6667 22.2833H2.33333C1.04467 22.2833 0 21.2387 0 19.95V8.86667C0 7.84 0.583333 7 2.15833 7H4.66667V5.83333ZM14 5.83333V7H7V5.83333C7 3.89933 8.566 2.33333 10.5 2.33333C12.434 2.33333 14 3.89933 14 5.83333ZM10.5 10.5C9.21134 10.5 8.10138 11.5463 8.16667 12.8333C8.20986 13.6848 8.64356 14.3508 9.33333 14.6785V16.3333C9.33333 16.8166 9.54006 18.0833 10.5 18.0833C11.4599 18.0833 11.6667 16.8166 11.6667 16.3333V14.6785C12.3564 14.3508 12.7901 13.6848 12.8333 12.8333C12.8986 11.5463 11.7887 10.5 10.5 10.5Z" fill="var(--fill-0, #A1A1AA)"/>
</svg>
