<svg preserveAspectRatio="none" width="100%" height="100%" overflow="visible" style="display: block;" viewBox="0 0 24 24" fill="none" xmlns="http://www.w3.org/2000/svg">
<path id="Icon" fill-rule="evenodd" clip-rule="evenodd" d="M23.3333 11.6667C23.3333 18.11 18.11 23.3333 11.6667 23.3333C5.22334 23.3333 0 18.11 0 11.6667C0 5.22334 5.22334 0 11.6667 0C18.11 0 23.3333 5.22334 23.3333 11.6667ZM10.5 9.33333C9.85567 9.33333 9.33333 9.85567 9.33333 10.5C9.33333 11.1443 9.85567 11.6667 10.5 11.6667V17.5C10.5 18.1443 11.0223 18.6667 11.6667 18.6667H12.8333C13.4777 18.6667 14 18.1443 14 17.5C14 16.8557 13.4777 16.3333 12.8333 16.3333V10.5C12.8333 9.85567 12.311 9.33333 11.6667 9.33333H10.5ZM10.5 6.41667C10.5 5.77233 11.0223 5.25 11.6667 5.25C12.311 5.25 12.8333 5.77233 12.8333 6.41667C12.8333 7.061 12.311 7.58333 11.6667 7.58333C11.0223 7.58333 10.5 7.061 10.5 6.41667Z" fill="var(--fill-0, #A1A1AA)"/>
</svg>
