<svg preserveAspectRatio="none" width="100%" height="100%" overflow="visible" style="display: block;" viewBox="0 0 22 22" fill="none" xmlns="http://www.w3.org/2000/svg">
<g id="Icon">
<path d="M21.3246 6.32491C21.3126 5.42515 21.1442 4.53433 20.8268 3.6923C20.5516 2.98206 20.1313 2.33703 19.5927 1.79843C19.0541 1.25983 18.4091 0.839501 17.6988 0.5643C16.8676 0.25228 15.9895 0.0835654 15.1019 0.0653401C13.959 0.0142561 13.5967 0 10.6956 0C7.79447 0 7.42262 7.96616e-08 6.28808 0.0653401C5.40084 0.0836994 4.52313 0.252412 3.6923 0.5643C2.98195 0.839309 2.33682 1.25957 1.7982 1.7982C1.25957 2.33682 0.839309 2.98195 0.5643 3.6923C0.251655 4.52287 0.0833063 5.40078 0.066528 6.28808C0.015444 7.43213 0 7.79447 0 10.6956C0 13.5967 -8.85129e-09 13.9673 0.066528 15.103C0.084348 15.9917 0.251856 16.8684 0.5643 17.7012C0.839771 18.4113 1.26034 19.0562 1.79915 19.5946C2.33796 20.133 2.98314 20.5531 3.69349 20.828C4.52204 21.1526 5.3999 21.3334 6.28927 21.3626C7.43332 21.4137 7.79566 21.4291 10.6968 21.4291C13.5978 21.4291 13.9697 21.4291 15.1042 21.3626C15.9919 21.3451 16.87 21.1768 17.7012 20.8648C18.4113 20.5893 19.0561 20.1689 19.5947 19.6303C20.1332 19.0918 20.5537 18.4469 20.8292 17.7368C21.1416 16.9052 21.3092 16.0285 21.327 15.1387C21.3781 13.9958 21.3935 13.6335 21.3935 10.7312C21.3911 7.83011 21.3911 7.46183 21.3246 6.32491ZM10.6884 16.1817C7.65428 16.1817 5.19631 13.7238 5.19631 10.6896C5.19631 7.65547 7.65428 5.1975 10.6884 5.1975C12.145 5.1975 13.542 5.77613 14.572 6.80611C15.6019 7.83608 16.1806 9.23302 16.1806 10.6896C16.1806 12.1462 15.6019 13.5432 14.572 14.5731C13.542 15.6031 12.145 16.1817 10.6884 16.1817ZM16.3992 6.27502C16.2309 6.27517 16.0643 6.24215 15.9089 6.17785C15.7534 6.11355 15.6122 6.01922 15.4932 5.90027C15.3743 5.78131 15.28 5.64007 15.2157 5.48463C15.1513 5.32918 15.1183 5.16257 15.1185 4.99435C15.1185 4.82625 15.1516 4.6598 15.2159 4.50449C15.2803 4.34919 15.3745 4.20807 15.4934 4.08921C15.6123 3.97034 15.7534 3.87605 15.9087 3.81172C16.064 3.74739 16.2305 3.71428 16.3986 3.71428C16.5667 3.71428 16.7331 3.74739 16.8884 3.81172C17.0437 3.87605 17.1848 3.97034 17.3037 4.08921C17.4226 4.20807 17.5169 4.34919 17.5812 4.50449C17.6455 4.6598 17.6786 4.82625 17.6786 4.99435C17.6786 5.7024 17.106 6.27502 16.3992 6.27502Z" fill="var(--fill-0, #52525B)"/>
<path d="M10.6884 14.2572C12.6587 14.2572 14.256 12.6599 14.256 10.6896C14.256 8.71931 12.6587 7.12206 10.6884 7.12206C8.71813 7.12206 7.12087 8.71931 7.12087 10.6896C7.12087 12.6599 8.71813 14.2572 10.6884 14.2572Z" fill="var(--fill-0, #52525B)"/>
</g>
</svg>
