<svg preserveAspectRatio="none" width="100%" height="100%" overflow="visible" style="display: block;" viewBox="0 0 25 25" fill="none" xmlns="http://www.w3.org/2000/svg">
<path id="Icon" d="M23.9238 10.1303H12.3826V14.9134H19.0243C18.4061 17.9529 15.8185 19.6993 12.3826 19.6993C11.4212 19.7009 10.4689 19.5127 9.58034 19.1455C8.69181 18.7783 7.88451 18.2393 7.20474 17.5594C6.52498 16.8795 5.98613 16.0721 5.61909 15.1835C5.25206 14.2949 5.06406 13.3426 5.06589 12.3812C5.06424 11.4199 5.25238 10.4677 5.61949 9.57927C5.98661 8.69083 6.52549 7.88359 7.20523 7.20384C7.88498 6.5241 8.69222 5.98522 9.58066 5.6181C10.4691 5.25098 11.4213 5.06285 12.3826 5.0645C14.1276 5.0645 15.7048 5.68404 16.9425 6.69721L20.5461 3.09499C18.3507 1.18093 15.5357 5.27485e-05 12.3826 5.27485e-05C10.7552 -0.00470425 9.14284 0.312332 7.63837 0.932927C6.13391 1.55352 4.76698 2.46543 3.61621 3.6162C2.46544 4.76698 1.55353 6.1339 0.932932 7.63837C0.312336 9.14283 -0.0047001 10.7551 5.68969e-05 12.3826C-0.00488405 14.0101 0.312027 15.6225 0.932557 17.127C1.55309 18.6316 2.46499 19.9986 3.6158 21.1494C4.76661 22.3002 6.13361 23.2121 7.63816 23.8326C9.1427 24.4531 10.7551 24.77 12.3826 24.7651C18.5738 24.7651 24.2038 20.262 24.2038 12.3826C24.2038 11.6508 24.0915 10.8621 23.9238 10.1303Z" fill="var(--fill-0, #52525B)"/>
</svg>
