<svg preserveAspectRatio="none" width="100%" height="100%" overflow="visible" style="display: block;" viewBox="0 0 20 20" fill="none" xmlns="http://www.w3.org/2000/svg">
<path id="Icon" fill-rule="evenodd" clip-rule="evenodd" d="M9.87426 0C4.42035 0 0 4.42035 0 9.87426C0 14.2362 2.82843 17.9378 6.75279 19.2446C7.2468 19.3337 7.425 19.0298 7.425 18.7684C7.425 18.5338 7.41708 17.9121 7.41411 17.0894C4.66686 17.6854 4.08672 15.7648 4.08672 15.7648C3.63924 14.6243 2.99079 14.3204 2.99079 14.3204C2.09484 13.7075 3.0591 13.7214 3.0591 13.7214C4.05108 13.7907 4.57083 14.7391 4.57083 14.7391C5.45193 16.2479 6.88347 15.8123 7.44381 15.5598C7.5339 14.9213 7.7913 14.4857 8.07246 14.2392C5.8806 13.9907 3.57588 13.1432 3.57588 9.35847C3.57588 8.28234 3.96099 7.39926 4.58964 6.71022C4.48965 6.45975 4.1481 5.4549 4.68765 4.09662C4.68765 4.09662 5.51628 3.83031 7.40223 5.10741C8.20769 4.88829 9.03854 4.77645 9.87327 4.77477C10.708 4.77612 11.5389 4.88798 12.3443 5.10741C14.2312 3.82932 15.0589 4.09662 15.0589 4.09662C15.5984 5.4549 15.2599 6.45975 15.1569 6.71022C15.7905 7.39926 16.1707 8.28135 16.1707 9.35847C16.1707 13.1531 13.864 13.9867 11.6642 14.2313C12.0156 14.5362 12.3324 15.1381 12.3324 16.0588C12.3324 17.3795 12.3205 18.4447 12.3205 18.7684C12.3205 19.0328 12.4968 19.3397 13.0007 19.2426C16.9231 17.9339 19.7485 14.2352 19.7485 9.87426C19.7485 4.42035 15.3282 0 9.87426 0Z" fill="var(--fill-0, #52525B)"/>
</svg>
