<svg preserveAspectRatio="none" width="100%" height="100%" overflow="visible" style="display: block;" viewBox="0 0 20 20" fill="none" xmlns="http://www.w3.org/2000/svg">
<path id="Icon" fill-rule="evenodd" clip-rule="evenodd" d="M10 20C15.5228 20 20 15.5228 20 10C20 4.47715 15.5228 0 10 0C4.47715 0 0 4.47715 0 10C0 15.5228 4.47715 20 10 20ZM15.0001 8.4142C15.3906 8.02367 15.3906 7.39051 15.0001 6.99999C14.6096 6.60946 13.9764 6.60946 13.5859 6.99999L8.34947 12.2364L6.05224 9.5563C5.69282 9.13698 5.06152 9.08841 4.6422 9.44784C4.22287 9.80726 4.17431 10.4386 4.53373 10.8579L7.53373 14.3579C7.715 14.5694 7.97627 14.6957 8.25461 14.7064C8.53295 14.717 8.80313 14.6112 9.00009 14.4142L15.0001 8.4142Z" fill="var(--fill-0, #149041)"/>
</svg>
