<svg preserveAspectRatio="none" width="100%" height="100%" overflow="visible" style="display: block;" viewBox="0 0 17 17" fill="none" xmlns="http://www.w3.org/2000/svg">
<path id="Icon" fill-rule="evenodd" clip-rule="evenodd" d="M8.33333 16.6667C12.9357 16.6667 16.6667 12.9357 16.6667 8.33333C16.6667 3.73096 12.9357 0 8.33333 0C3.73096 0 0 3.73096 0 8.33333C0 12.9357 3.73096 16.6667 8.33333 16.6667ZM12.5001 7.01183C12.8255 6.6864 12.8255 6.15876 12.5001 5.83332C12.1746 5.50788 11.647 5.50788 11.3216 5.83332L6.95789 10.197L5.04354 7.96358C4.74402 7.61415 4.21793 7.57368 3.8685 7.8732C3.51906 8.17272 3.47859 8.6988 3.77811 9.04824L6.27811 11.9649C6.42917 12.1411 6.64689 12.2464 6.87884 12.2553C7.11079 12.2642 7.33594 12.176 7.50008 12.0118L12.5001 7.01183Z" fill="var(--fill-0, #149041)"/>
</svg>
