<svg preserveAspectRatio="none" width="100%" height="100%" overflow="visible" style="display: block;" viewBox="0 0 18 18" fill="none" xmlns="http://www.w3.org/2000/svg">
<path id="Icon" fill-rule="evenodd" clip-rule="evenodd" d="M4.8718 0C2.18118 0 0 2.18118 0 4.8718V13.1282C0 15.8188 2.18118 18 4.8718 18H13.1282C15.8188 18 18 15.8188 18 13.1282V4.8718C18 2.18118 15.8188 0 13.1282 0H4.8718ZM2 5.15152C2 3.41098 3.41098 2 5.15152 2H12.8485C14.589 2 16 3.41098 16 5.15152V12.8485C16 14.589 14.589 16 12.8485 16H5.15152C3.41098 16 2 14.589 2 12.8485V5.15152Z" fill="var(--fill-0, #1559EA)"/>
</svg>
