<svg preserveAspectRatio="none" width="100%" height="100%" overflow="visible" style="display: block;" viewBox="0 0 24 24" fill="none" xmlns="http://www.w3.org/2000/svg">
<path id="Icon" d="M11.8788 0C5.31868 0 0 5.31868 0 11.8788C0 17.8069 4.34333 22.7205 10.0232 23.6151V15.3133H7.00564V11.8788H10.0232V9.26165C10.0232 6.28215 11.7968 4.63914 14.509 4.63914C15.8087 4.63914 17.1702 4.8708 17.1702 4.8708V7.79209H15.6685C14.1954 7.79209 13.7345 8.70923 13.7345 9.64894V11.8764H17.0264L16.5001 15.3109H13.7345V23.6127C19.4143 22.7229 23.7576 17.8081 23.7576 11.8788C23.7576 5.31868 18.4389 0 11.8788 0V0Z" fill="var(--fill-0, #52525B)"/>
</svg>
