<svg preserveAspectRatio="none" width="100%" height="100%" overflow="visible" style="display: block;" viewBox="0 0 31 36" fill="none" xmlns="http://www.w3.org/2000/svg">
<g id="Shape">
<mask id="path-1-outside-1_12366_106880" maskUnits="userSpaceOnUse" x="0" y="0" width="31" height="36" fill="black">
<rect fill="white" width="31" height="36"/>
<path d="M13 2C15.5232 2 18.0106 2.59674 20.2591 3.74149C22.5077 4.88625 24.4536 6.54656 25.938 8.58687C27.4225 10.6272 28.4033 12.9896 28.8005 15.4814C29.1977 17.9731 29 20.5234 28.2234 22.9241C27.4469 25.3248 26.1136 27.5079 24.3324 29.295C22.5512 31.0821 20.3726 32.4226 17.9745 33.2071C15.5763 33.9915 13.0267 34.1977 10.5337 33.8088C8.04063 33.4198 5.67494 32.4468 3.62973 30.9691L13 18L13 2Z"/>
</mask>
<path d="M13 2C15.5232 2 18.0106 2.59674 20.2591 3.74149C22.5077 4.88625 24.4536 6.54656 25.938 8.58687C27.4225 10.6272 28.4033 12.9896 28.8005 15.4814C29.1977 17.9731 29 20.5234 28.2234 22.9241C27.4469 25.3248 26.1136 27.5079 24.3324 29.295C22.5512 31.0821 20.3726 32.4226 17.9745 33.2071C15.5763 33.9915 13.0267 34.1977 10.5337 33.8088C8.04063 33.4198 5.67494 32.4468 3.62973 30.9691L13 18L13 2Z" stroke="var(--stroke-0, #61A6FA)" stroke-width="4" mask="url(#path-1-outside-1_12366_106880)"/>
</g>
</svg>
