<svg preserveAspectRatio="none" width="100%" height="100%" overflow="visible" style="display: block;" viewBox="0 0 24 24" fill="none" xmlns="http://www.w3.org/2000/svg">
<path id="Icon" fill-rule="evenodd" clip-rule="evenodd" d="M11.6667 23.3333C18.11 23.3333 23.3333 18.11 23.3333 11.6667C23.3333 5.22334 18.11 0 11.6667 0C5.22334 0 0 5.22334 0 11.6667C0 18.11 5.22334 23.3333 11.6667 23.3333ZM17.5001 9.81657C17.9557 9.36095 17.9557 8.62226 17.5001 8.16665C17.0445 7.71104 16.3058 7.71104 15.8502 8.16665L9.74105 14.2758L7.06095 11.149C6.64162 10.6598 5.90511 10.6031 5.41589 11.0225C4.92668 11.4418 4.87003 12.1783 5.28935 12.6675L8.78935 16.7509C9.00084 16.9976 9.30565 17.1449 9.63038 17.1574C9.95511 17.1699 10.2703 17.0464 10.5001 16.8166L17.5001 9.81657Z" fill="var(--fill-0, #149041)"/>
</svg>
