<svg preserveAspectRatio="none" width="100%" height="100%" overflow="visible" style="display: block;" viewBox="0 0 20 18" fill="none" xmlns="http://www.w3.org/2000/svg">
<path id="Icon" fill-rule="evenodd" clip-rule="evenodd" d="M12.2987 1.31824C11.2904 -0.439413 8.70959 -0.439412 7.7013 1.31824L0.342547 14.146C-0.646387 15.8699 0.624087 18 2.64124 18H17.3588C19.3759 18 20.6464 15.8699 19.6575 14.146L12.2987 1.31824ZM10 5.5C9.44772 5.5 9 5.94772 9 6.5V11.5C9 12.0523 9.44772 12.5 10 12.5C10.5523 12.5 11 12.0523 11 11.5V6.5C11 5.94772 10.5523 5.5 10 5.5ZM10 13.5C9.44772 13.5 9 13.9477 9 14.5C9 15.0523 9.44772 15.5 10 15.5C10.5523 15.5 11 15.0523 11 14.5C11 13.9477 10.5523 13.5 10 13.5Z" fill="var(--fill-0, #DC2828)"/>
</svg>
