<svg preserveAspectRatio="none" width="100%" height="100%" overflow="visible" style="display: block;" viewBox="0 0 32 31" fill="none" xmlns="http://www.w3.org/2000/svg">
<path id="Icon" fill-rule="evenodd" clip-rule="evenodd" d="M15.7988 0C7.07256 0 0 7.07256 0 15.7988C0 22.7779 4.52549 28.7005 10.8045 30.7914C11.5949 30.9339 11.88 30.4477 11.88 30.0295C11.88 29.6541 11.8673 28.6593 11.8626 27.343C7.46698 28.2966 6.53875 25.2236 6.53875 25.2236C5.82278 23.3988 4.78526 22.9126 4.78526 22.9126C3.35174 21.9321 4.89456 21.9542 4.89456 21.9542C6.48173 22.0651 7.31333 23.5826 7.31333 23.5826C8.72309 25.9966 11.0136 25.2996 11.9101 24.8957C12.0542 23.874 12.4661 23.1771 12.9159 22.7827C9.40896 22.3851 5.72141 21.0292 5.72141 14.9736C5.72141 13.2517 6.33758 11.8388 7.34342 10.7364C7.18344 10.3356 6.63696 8.72784 7.50024 6.55459C7.50024 6.55459 8.82605 6.1285 11.8436 8.17186C13.1323 7.82127 14.4617 7.64232 15.7972 7.63963C17.1328 7.6418 18.4623 7.82076 19.7509 8.17186C22.77 6.12691 24.0942 6.55459 24.0942 6.55459C24.9575 8.72784 24.4158 10.3356 24.251 10.7364C25.2648 11.8388 25.8731 13.2502 25.8731 14.9736C25.8731 21.045 22.1823 22.3788 18.6627 22.77C19.225 23.2579 19.7319 24.2209 19.7319 25.6941C19.7319 27.8071 19.7129 29.5115 19.7129 30.0295C19.7129 30.4524 19.9948 30.9434 20.8011 30.7882C27.0769 28.6942 31.5976 22.7763 31.5976 15.7988C31.5976 7.07256 24.5251 0 15.7988 0Z" fill="var(--fill-0, #52525B)"/>
</svg>
