<svg preserveAspectRatio="none" width="100%" height="100%" overflow="visible" style="display: block;" viewBox="0 0 32 32" fill="none" xmlns="http://www.w3.org/2000/svg">
<path id="Icon" d="M15.8384 0C7.09157 0 0 7.09157 0 15.8384C0 23.7426 5.7911 30.294 13.3642 31.4867V20.4178H9.34085V15.8384H13.3642V12.3489C13.3642 8.37619 15.7291 6.18552 19.3454 6.18552C21.0783 6.18552 22.8936 6.4944 22.8936 6.4944V10.3895H20.8914C18.9272 10.3895 18.3126 11.6123 18.3126 12.8652V15.8352H22.7019L22.0002 20.4146H18.3126V31.4836C25.8857 30.2972 31.6768 23.7442 31.6768 15.8384C31.6768 7.09157 24.5853 0 15.8384 0V0Z" fill="var(--fill-0, #52525B)"/>
</svg>
