<svg preserveAspectRatio="none" width="100%" height="100%" overflow="visible" style="display: block;" viewBox="0 0 28 27" fill="none" xmlns="http://www.w3.org/2000/svg">
<path id="Icon" fill-rule="evenodd" clip-rule="evenodd" d="M13.824 0C6.18849 0 0 6.18849 0 13.824C0 19.9307 3.9598 25.1129 9.45391 26.9425C10.1455 27.0672 10.395 26.6417 10.395 26.2758C10.395 25.9473 10.3839 25.0769 10.3798 23.9251C6.53361 24.7595 5.72141 22.0707 5.72141 22.0707C5.09494 20.474 4.18711 20.0485 4.18711 20.0485C2.93278 19.1906 4.28274 19.21 4.28274 19.21C5.67151 19.307 6.39916 20.6348 6.39916 20.6348C7.6327 22.747 9.63686 22.1372 10.4213 21.7838C10.5475 20.8898 10.9078 20.28 11.3014 19.9348C8.23284 19.587 5.00623 18.4005 5.00623 13.1019C5.00623 11.5953 5.54539 10.359 6.4255 9.39431C6.28551 9.04365 5.80734 7.63686 6.56271 5.73527C6.56271 5.73527 7.72279 5.36244 10.3631 7.15038C11.4908 6.84361 12.654 6.68703 13.8226 6.68468C14.9912 6.68658 16.1545 6.84317 17.282 7.15038C19.9238 5.36105 21.0824 5.73527 21.0824 5.73527C21.8378 7.63686 21.3638 9.04365 21.2197 9.39431C22.1067 10.359 22.6389 11.5939 22.6389 13.1019C22.6389 18.4144 19.4095 19.5814 16.3299 19.9238C16.8219 20.3506 17.2654 21.1933 17.2654 22.4823C17.2654 24.3312 17.2488 25.8226 17.2488 26.2758C17.2488 26.6459 17.4955 27.0755 18.201 26.9397C23.6923 25.1074 27.6479 19.9293 27.6479 13.824C27.6479 6.18849 21.4594 0 13.824 0Z" fill="var(--fill-0, #52525B)"/>
</svg>
