<svg preserveAspectRatio="none" width="100%" height="100%" overflow="visible" style="display: block;" viewBox="0 0 24 21" fill="none" xmlns="http://www.w3.org/2000/svg">
<path id="Icon" fill-rule="evenodd" clip-rule="evenodd" d="M14.3485 1.53794C13.1721 -0.512649 10.1612 -0.512648 8.98485 1.53795L0.399638 16.5037C-0.754118 18.5149 0.728102 21 3.08145 21H20.2519C22.6052 21 24.0875 18.5149 22.9337 16.5037L14.3485 1.53794ZM11.6667 6.41667C11.0223 6.41667 10.5 6.939 10.5 7.58333V13.4167C10.5 14.061 11.0223 14.5833 11.6667 14.5833C12.311 14.5833 12.8333 14.061 12.8333 13.4167V7.58333C12.8333 6.939 12.311 6.41667 11.6667 6.41667ZM11.6667 15.75C11.0223 15.75 10.5 16.2723 10.5 16.9167C10.5 17.561 11.0223 18.0833 11.6667 18.0833C12.311 18.0833 12.8333 17.561 12.8333 16.9167C12.8333 16.2723 12.311 15.75 11.6667 15.75Z" fill="var(--fill-0, #DC2828)"/>
</svg>
