<svg preserveAspectRatio="none" width="100%" height="100%" overflow="visible" style="display: block;" viewBox="0 0 37 44" fill="none" xmlns="http://www.w3.org/2000/svg">
<g id="Shape">
<mask id="path-1-outside-1_12366_106888" maskUnits="userSpaceOnUse" x="0" y="0" width="37" height="44" fill="black">
<rect fill="white" width="37" height="44"/>
<path d="M15 2C18.154 2 21.2632 2.74592 24.0739 4.17687C26.8846 5.60781 29.317 7.6832 31.1726 10.2336C33.0281 12.784 34.2542 15.7371 34.7507 18.8517C35.2471 21.9664 35 25.1543 34.0293 28.1552C33.0586 31.1561 31.392 33.8848 29.1655 36.1187C26.939 38.3526 24.2158 40.0282 21.2181 41.0088C18.2204 41.9894 15.0333 42.2471 11.9171 41.761C8.80079 41.2748 5.84368 40.0585 3.28716 38.2114L15 22L15 2Z"/>
</mask>
<path d="M15 2C18.154 2 21.2632 2.74592 24.0739 4.17687C26.8846 5.60781 29.317 7.6832 31.1726 10.2336C33.0281 12.784 34.2542 15.7371 34.7507 18.8517C35.2471 21.9664 35 25.1543 34.0293 28.1552C33.0586 31.1561 31.392 33.8848 29.1655 36.1187C26.939 38.3526 24.2158 40.0282 21.2181 41.0088C18.2204 41.9894 15.0333 42.2471 11.9171 41.761C8.80079 41.2748 5.84368 40.0585 3.28716 38.2114L15 22L15 2Z" stroke="var(--stroke-0, #1559EA)" stroke-width="4" mask="url(#path-1-outside-1_12366_106888)"/>
</g>
</svg>
