<svg preserveAspectRatio="none" width="100%" height="100%" overflow="visible" style="display: block;" viewBox="0 0 25 25" fill="none" xmlns="http://www.w3.org/2000/svg">
<g id="Icon">
<path d="M24.8787 7.37906C24.8647 6.32934 24.6682 5.29005 24.298 4.30769C23.9769 3.47907 23.4865 2.72654 22.8581 2.09817C22.2298 1.4698 21.4772 0.979418 20.6486 0.65835C19.6789 0.294327 18.6544 0.097493 17.6188 0.0762301C16.2855 0.0166321 15.8628 0 12.4782 0C9.09355 0 8.65973 9.29385e-08 7.3361 0.0762301C6.30098 0.0976493 5.27698 0.294481 4.30769 0.65835C3.47894 0.979194 2.72629 1.4695 2.0979 2.0979C1.4695 2.72629 0.979194 3.47894 0.65835 4.30769C0.293598 5.27669 0.0971907 6.30091 0.077616 7.3361C0.018018 8.67082 0 9.09355 0 12.4782C0 15.8628 -1.03265e-08 16.2952 0.077616 17.6202C0.098406 18.6569 0.293832 19.6798 0.65835 20.6514C0.979732 21.4799 1.4704 22.2322 2.09901 22.8604C2.72761 23.4885 3.48033 23.9786 4.30907 24.2994C5.27572 24.678 6.29989 24.8889 7.33748 24.9231C8.6722 24.9826 9.09493 25.0007 12.4795 25.0007C15.8642 25.0007 16.298 25.0007 17.6216 24.9231C18.6572 24.9027 19.6817 24.7063 20.6514 24.3423C21.4798 24.0209 22.2321 23.5304 22.8605 22.902C23.4888 22.2737 23.9793 21.5214 24.3007 20.693C24.6653 19.7228 24.8607 18.6999 24.8815 17.6618C24.9411 16.3285 24.9591 15.9057 24.9591 12.5197C24.9563 9.13513 24.9563 8.70547 24.8787 7.37906ZM12.4698 18.8787C8.93 18.8787 6.06236 16.0111 6.06236 12.4712C6.06236 8.93138 8.93 6.06375 12.4698 6.06375C14.1692 6.06375 15.799 6.73882 17.0006 7.94046C18.2022 9.14209 18.8773 10.7719 18.8773 12.4712C18.8773 14.1706 18.2022 15.8004 17.0006 17.002C15.799 18.2036 14.1692 18.8787 12.4698 18.8787ZM19.1323 7.32085C18.9361 7.32103 18.7417 7.28251 18.5604 7.20749C18.379 7.13247 18.2142 7.02242 18.0754 6.88364C17.9367 6.74487 17.8266 6.58009 17.7516 6.39873C17.6766 6.21737 17.6381 6.023 17.6382 5.82674C17.6382 5.63063 17.6769 5.43643 17.7519 5.25524C17.827 5.07405 17.937 4.90942 18.0756 4.77074C18.2143 4.63206 18.379 4.52206 18.5601 4.44701C18.7413 4.37196 18.9355 4.33333 19.1317 4.33333C19.3278 4.33333 19.522 4.37196 19.7032 4.44701C19.8843 4.52206 20.049 4.63206 20.1877 4.77074C20.3263 4.90942 20.4363 5.07405 20.5114 5.25524C20.5864 5.43643 20.6251 5.63063 20.6251 5.82674C20.6251 6.6528 19.957 7.32085 19.1323 7.32085Z" fill="var(--fill-0, #52525B)"/>
<path d="M12.4698 16.6334C14.7685 16.6334 16.632 14.7699 16.632 12.4712C16.632 10.1725 14.7685 8.30907 12.4698 8.30907C10.1711 8.30907 8.30768 10.1725 8.30768 12.4712C8.30768 14.7699 10.1711 16.6334 12.4698 16.6334Z" fill="var(--fill-0, #52525B)"/>
</g>
</svg>
