<svg preserveAspectRatio="none" width="100%" height="100%" overflow="visible" style="display: block;" viewBox="0 0 50 60" fill="none" xmlns="http://www.w3.org/2000/svg">
<g id="Shape">
<mask id="path-1-outside-1_12366_107022" maskUnits="userSpaceOnUse" x="0" y="0" width="50" height="60" fill="black">
<rect fill="white" width="50" height="60"/>
<path d="M20 2C24.4156 2 28.7685 3.04429 32.7035 5.04761C36.6384 7.05093 40.0438 9.95648 42.6416 13.527C45.2393 17.0976 46.9558 21.2319 47.6509 25.5924C48.346 29.9529 47.9999 34.416 46.641 38.6172C45.2821 42.8185 42.9488 46.6388 39.8317 49.7662C36.7146 52.8936 32.9021 55.2395 28.7053 56.6124C24.5086 57.9852 20.0467 58.346 15.6839 57.6653C11.3211 56.9847 7.18115 55.2819 3.60203 52.696L20 30L20 2Z"/>
</mask>
<path d="M20 2C24.4156 2 28.7685 3.04429 32.7035 5.04761C36.6384 7.05093 40.0438 9.95648 42.6416 13.527C45.2393 17.0976 46.9558 21.2319 47.6509 25.5924C48.346 29.9529 47.9999 34.416 46.641 38.6172C45.2821 42.8185 42.9488 46.6388 39.8317 49.7662C36.7146 52.8936 32.9021 55.2395 28.7053 56.6124C24.5086 57.9852 20.0467 58.346 15.6839 57.6653C11.3211 56.9847 7.18115 55.2819 3.60203 52.696L20 30L20 2Z" stroke="var(--stroke-0, #61A6FA)" stroke-width="4" mask="url(#path-1-outside-1_12366_107022)"/>
</g>
</svg>
