<svg preserveAspectRatio="none" width="100%" height="100%" overflow="visible" style="display: block;" viewBox="0 0 17 17" fill="none" xmlns="http://www.w3.org/2000/svg">
<path id="Icon" fill-rule="evenodd" clip-rule="evenodd" d="M16.6667 8.33333C16.6667 12.9357 12.9357 16.6667 8.33333 16.6667C3.73096 16.6667 0 12.9357 0 8.33333C0 3.73096 3.73096 0 8.33333 0C12.9357 0 16.6667 3.73096 16.6667 8.33333ZM7.5 6.66667C7.03976 6.66667 6.66667 7.03976 6.66667 7.5C6.66667 7.96024 7.03976 8.33333 7.5 8.33333V12.5C7.5 12.9602 7.8731 13.3333 8.33333 13.3333H9.16667C9.6269 13.3333 10 12.9602 10 12.5C10 12.0398 9.6269 11.6667 9.16667 11.6667V7.5C9.16667 7.03976 8.79357 6.66667 8.33333 6.66667H7.5ZM7.5 4.58333C7.5 4.1231 7.8731 3.75 8.33333 3.75C8.79357 3.75 9.16667 4.1231 9.16667 4.58333C9.16667 5.04357 8.79357 5.41667 8.33333 5.41667C7.8731 5.41667 7.5 5.04357 7.5 4.58333Z" fill="var(--fill-0, #A1A1AA)"/>
</svg>
