<svg preserveAspectRatio="none" width="100%" height="100%" overflow="visible" style="display: block;" viewBox="0 0 27 32" fill="none" xmlns="http://www.w3.org/2000/svg">
<g id="Shape">
<mask id="path-1-outside-1_12366_106996" maskUnits="userSpaceOnUse" x="0" y="0" width="27" height="32" fill="black">
<rect fill="white" width="27" height="32"/>
<path d="M11 2C13.2078 2 15.3843 2.52215 17.3517 3.52381C19.3192 4.52547 21.0219 5.97824 22.3208 7.76351C23.6197 9.54879 24.4779 11.6159 24.8255 13.7962C25.173 15.9764 25 18.208 24.3205 20.3086C23.641 22.4092 22.4744 24.3194 20.9159 25.8831C19.3573 27.4468 17.451 28.6198 15.3527 29.3062C13.2543 29.9926 11.0233 30.173 8.84195 29.8327C6.66055 29.4924 4.59057 28.6409 2.80101 27.348L11 16L11 2Z"/>
</mask>
<path d="M11 2C13.2078 2 15.3843 2.52215 17.3517 3.52381C19.3192 4.52547 21.0219 5.97824 22.3208 7.76351C23.6197 9.54879 24.4779 11.6159 24.8255 13.7962C25.173 15.9764 25 18.208 24.3205 20.3086C23.641 22.4092 22.4744 24.3194 20.9159 25.8831C19.3573 27.4468 17.451 28.6198 15.3527 29.3062C13.2543 29.9926 11.0233 30.173 8.84195 29.8327C6.66055 29.4924 4.59057 28.6409 2.80101 27.348L11 16L11 2Z" stroke="var(--stroke-0, #61A6FA)" stroke-width="4" mask="url(#path-1-outside-1_12366_106996)"/>
</g>
</svg>
