<svg preserveAspectRatio="none" width="100%" height="100%" overflow="visible" style="display: block;" viewBox="0 0 15 15" fill="none" xmlns="http://www.w3.org/2000/svg">
<path id="Icon" fill-rule="evenodd" clip-rule="evenodd" d="M4.05983 0C1.81765 0 0 1.81765 0 4.05983V10.9402C0 13.1824 1.81765 15 4.05983 15H10.9402C13.1824 15 15 13.1824 15 10.9402V4.05983C15 1.81765 13.1824 0 10.9402 0H4.05983ZM1.66667 4.29293C1.66667 2.84248 2.84248 1.66667 4.29293 1.66667H10.7071C12.1575 1.66667 13.3333 2.84248 13.3333 4.29293V10.7071C13.3333 12.1575 12.1575 13.3333 10.7071 13.3333H4.29293C2.84248 13.3333 1.66667 12.1575 1.66667 10.7071V4.29293Z" fill="var(--fill-0, #52525B)"/>
</svg>
