<svg preserveAspectRatio="none" width="100%" height="100%" overflow="visible" style="display: block;" viewBox="0 0 21 21" fill="none" xmlns="http://www.w3.org/2000/svg">
<path id="Icon" fill-rule="evenodd" clip-rule="evenodd" d="M5.68376 0C2.54471 0 0 2.54471 0 5.68376V15.3162C0 18.4553 2.54471 21 5.68376 21H15.3162C18.4553 21 21 18.4553 21 15.3162V5.68376C21 2.54471 18.4553 0 15.3162 0H5.68376ZM2.33333 6.0101C2.33333 3.97948 3.97948 2.33333 6.0101 2.33333H14.9899C17.0205 2.33333 18.6667 3.97948 18.6667 6.0101V14.9899C18.6667 17.0205 17.0205 18.6667 14.9899 18.6667H6.0101C3.97948 18.6667 2.33333 17.0205 2.33333 14.9899V6.0101Z" fill="var(--fill-0, #A1A1AA)"/>
</svg>
