<svg preserveAspectRatio="none" width="100%" height="100%" overflow="visible" style="display: block;" viewBox="0 0 23 26" fill="none" xmlns="http://www.w3.org/2000/svg">
<g id="Icon">
<path d="M12.2597 2.10181C11.5633 3.09155 11.1859 4.27555 11.1366 5.62349C11.362 5.5983 11.5868 5.56822 11.8109 5.53318C12.0628 5.49277 12.2714 5.44789 12.4236 5.40229C12.8844 5.24343 13.4059 4.892 13.9696 4.36117C14.5722 3.75875 15.026 3.09123 15.3163 2.38201C15.5934 1.64952 15.7337 0.983588 15.7337 0.40284V0.146727C15.7224 0.0979329 15.7114 0.0489514 15.7009 0C14.1169 0.400412 12.9597 1.10705 12.2597 2.10181Z" fill="var(--fill-0, #52525B)"/>
<path d="M2.40032 6.68888C3.75614 5.35709 5.40911 4.8276 6.60451 4.8276C7.78488 4.8276 8.76636 5.3452 9.47084 5.71671L9.55235 5.75965C10.3471 6.17766 10.8482 6.41562 11.4009 6.41562C11.9711 6.41562 12.5153 6.16668 13.4058 5.73966L13.4227 5.73154C14.2279 5.34535 15.3075 4.8276 16.6068 4.8276C18.4041 4.8276 19.8996 5.74142 21.0764 7.27773C21.4588 7.77693 21.395 8.48719 20.9298 8.90973C19.6461 10.0758 19.0158 11.5052 19.0158 13.2842C19.0158 15.748 20.7457 16.8359 21.5785 17.3334C22.0711 17.6277 22.2886 18.2298 22.0982 18.7726C21.7981 19.6284 21.2466 20.7024 20.6908 21.6419C20.1437 22.5666 19.5131 23.4955 19.0167 24.0102L18.9912 24.0367C18.6278 24.4136 18.2122 24.8446 17.7055 25.1531C17.1295 25.5038 16.4992 25.6667 15.7338 25.6667C15.2842 25.6667 14.8347 25.5689 14.4476 25.462C14.0959 25.3649 13.727 25.2398 13.3902 25.1256L13.2768 25.0871C12.4734 24.8153 11.8712 24.6342 11.4009 24.6342C10.9509 24.6342 10.4495 24.8023 9.71956 25.0747L9.61112 25.1153C8.98994 25.3483 8.14109 25.6667 7.28374 25.6667C5.46696 25.6667 4.30452 24.2515 3.94459 23.8133C3.91879 23.7819 3.89711 23.7555 3.87961 23.735L3.84743 23.6975C3.32857 23.0945 0 19.2257 0 13.2842C0 10.1928 1.00993 8.05463 2.40032 6.68888Z" fill="var(--fill-0, #52525B)"/>
</g>
</svg>
