<svg preserveAspectRatio="none" width="100%" height="100%" overflow="visible" style="display: block;" viewBox="0 0 28 28" fill="none" xmlns="http://www.w3.org/2000/svg">
<path id="Icon" d="M13.8586 0C6.20512 0 0 6.20512 0 13.8586C0 20.7748 5.06722 26.5073 11.6937 27.5509V17.8655H8.17324V13.8586H11.6937V10.8053C11.6937 7.32917 13.763 5.41233 16.9272 5.41233C18.4435 5.41233 20.0319 5.6826 20.0319 5.6826V9.09078H18.28C16.5613 9.09078 16.0235 10.1608 16.0235 11.2571V13.8558H19.8642L19.2502 17.8628H16.0235V27.5481C22.65 26.51 27.7172 20.7761 27.7172 13.8586C27.7172 6.20512 21.5121 0 13.8586 0V0Z" fill="var(--fill-0, #52525B)"/>
</svg>
