<svg preserveAspectRatio="none" width="100%" height="100%" overflow="visible" style="display: block;" viewBox="0 0 18 18" fill="none" xmlns="http://www.w3.org/2000/svg">
<path id="Icon" d="M17.0884 7.23595H8.8447V10.6524H13.5888C13.1472 12.8235 11.2989 14.0709 8.8447 14.0709C8.15797 14.0721 7.47777 13.9377 6.8431 13.6754C6.20843 13.4131 5.63179 13.0281 5.14624 12.5425C4.6607 12.0568 4.2758 11.4801 4.01364 10.8454C3.75147 10.2107 3.61719 9.53043 3.61849 8.84371C3.61732 8.15706 3.7517 7.47694 4.01392 6.84234C4.27615 6.20773 4.66106 5.63113 5.14659 5.1456C5.63213 4.66007 6.20873 4.27515 6.84333 4.01293C7.47793 3.7507 8.15806 3.61632 8.8447 3.6175C10.0911 3.6175 11.2177 4.06003 12.1018 4.78372L14.6758 2.21071C13.1076 0.843518 11.097 3.76775e-05 8.8447 3.76775e-05C7.68225 -0.00336017 6.5306 0.223094 5.45598 0.666377C4.38136 1.10966 3.40499 1.76102 2.58301 2.583C1.76102 3.40498 1.10966 4.38136 0.66638 5.45598C0.223097 6.53059 -0.00335721 7.68225 4.06407e-05 8.8447C-0.00348861 10.0072 0.222876 11.1589 0.666112 12.2336C1.10935 13.3082 1.76071 14.2847 2.58271 15.1067C3.40472 15.9287 4.38115 16.58 5.45583 17.0233C6.5305 17.4665 7.68221 17.6929 8.8447 17.6894C13.267 17.6894 17.2884 14.4728 17.2884 8.8447C17.2884 8.32198 17.2082 7.75867 17.0884 7.23595Z" fill="var(--fill-0, #52525B)"/>
</svg>
