<svg preserveAspectRatio="none" width="100%" height="100%" overflow="visible" style="display: block;" viewBox="0 0 18 18" fill="none" xmlns="http://www.w3.org/2000/svg">
<g id="Icon">
<path fill-rule="evenodd" clip-rule="evenodd" d="M8 2C4.68629 2 2 4.68629 2 8C2 11.3137 4.68629 14 8 14C11.3137 14 14 11.3137 14 8C14 4.68629 11.3137 2 8 2ZM0 8C0 3.58172 3.58172 0 8 0C12.4183 0 16 3.58172 16 8C16 12.4183 12.4183 16 8 16C3.58172 16 0 12.4183 0 8Z" fill="var(--fill-0, #52525B)"/>
<path fill-rule="evenodd" clip-rule="evenodd" d="M12.2929 12.2929C12.6834 11.9024 13.3166 11.9024 13.7071 12.2929L17.7071 16.2929C18.0976 16.6834 18.0976 17.3166 17.7071 17.7071C17.3166 18.0976 16.6834 18.0976 16.2929 17.7071L12.2929 13.7071C11.9024 13.3166 11.9024 12.6834 12.2929 12.2929Z" fill="var(--fill-0, #52525B)"/>
</g>
</svg>
