<svg preserveAspectRatio="none" width="100%" height="100%" overflow="visible" style="display: block;" viewBox="0 0 15 16" fill="none" xmlns="http://www.w3.org/2000/svg">
<path id="Icon" fill-rule="evenodd" clip-rule="evenodd" d="M3.33333 4.16667C3.33333 1.86476 5.1981 0 7.5 0C9.8019 0 11.6667 1.86476 11.6667 4.16667V5H13.3333C14.5833 5 15 5.6 15 6.33333V14.25C15 15.1705 14.2538 15.9167 13.3333 15.9167H1.66667C0.746192 15.9167 0 15.1705 0 14.25V6.33333C0 5.6 0.416667 5 1.54167 5H3.33333V4.16667ZM10 4.16667V5H5V4.16667C5 2.78524 6.11857 1.66667 7.5 1.66667C8.88143 1.66667 10 2.78524 10 4.16667ZM7.5 7.5C6.57953 7.5 5.7867 8.24737 5.83333 9.16667C5.86419 9.77485 6.17397 10.2506 6.66667 10.4847V11.6667C6.66667 12.0118 6.81433 12.9167 7.5 12.9167C8.18567 12.9167 8.33333 12.0118 8.33333 11.6667V10.4847C8.82603 10.2506 9.13581 9.77485 9.16667 9.16667C9.2133 8.24737 8.42047 7.5 7.5 7.5Z" fill="var(--fill-0, #A1A1AA)"/>
</svg>
