<svg preserveAspectRatio="none" width="100%" height="100%" overflow="visible" style="display: block;" viewBox="0 0 19 22" fill="none" xmlns="http://www.w3.org/2000/svg">
<g id="Icon">
<path d="M10.5084 1.80155C9.91141 2.6499 9.58794 3.66476 9.54564 4.82013C9.73884 4.79854 9.93153 4.77276 10.1236 4.74273C10.3396 4.70809 10.5183 4.66962 10.6488 4.63053C11.0438 4.49437 11.4907 4.19314 11.9739 3.73815C12.4905 3.22178 12.8794 2.64963 13.1283 2.04172C13.3658 1.41387 13.4861 0.843075 13.4861 0.345291V0.125766C13.4763 0.0839425 13.4669 0.0419583 13.4579 0C12.1002 0.34321 11.1083 0.948903 10.5084 1.80155Z" fill="var(--fill-0, #52525B)"/>
<path d="M2.05742 5.73333C3.21955 4.59179 4.63638 4.13794 5.66101 4.13794C6.67275 4.13794 7.51403 4.5816 8.11786 4.90003L8.18773 4.93684C8.86895 5.29514 9.29849 5.4991 9.77216 5.4991C10.2609 5.4991 10.7274 5.28573 11.4907 4.91971L11.5052 4.91275C12.1954 4.58173 13.1207 4.13794 14.2344 4.13794C15.775 4.13794 17.0568 4.92122 18.0655 6.23805C18.3933 6.66594 18.3386 7.27474 17.9399 7.63691C16.8395 8.6364 16.2993 9.86161 16.2993 11.3864C16.2993 13.4983 17.782 14.4307 18.4958 14.8572C18.9181 15.1094 19.1045 15.6256 18.9413 16.0908C18.6841 16.8243 18.2114 17.7449 17.735 18.5502C17.266 19.3428 16.7256 20.139 16.3 20.5802L16.2782 20.6029C15.9667 20.9259 15.6105 21.2954 15.1762 21.5598C14.6824 21.8604 14.1421 22 13.4861 22C13.1007 22 12.7154 21.9162 12.3836 21.8246C12.0822 21.7414 11.766 21.6341 11.4773 21.5362L11.3801 21.5032C10.6915 21.2703 10.1753 21.115 9.77216 21.115C9.38646 21.115 8.95669 21.2591 8.33105 21.4926L8.2381 21.5274C7.70566 21.7271 6.97808 22 6.2432 22C4.68597 22 3.68959 20.787 3.38108 20.4114C3.35896 20.3845 3.34038 20.3618 3.32538 20.3443L3.2978 20.3122C2.85306 19.7953 0 16.4792 0 11.3864C0 8.73673 0.865651 6.90397 2.05742 5.73333Z" fill="var(--fill-0, #52525B)"/>
</g>
</svg>
